<svg xmlns="http://www.w3.org/2000/svg" xmlns:xlink="http://www.w3.org/1999/xlink" width="61" zoomAndPan="magnify" viewBox="0 0 45.75 45.749999" height="61" preserveAspectRatio="xMidYMid meet" version="1.0"><defs><clipPath id="aa278fe9d3"><path d="M 0 0 L 44.753906 0 L 44.753906 44.753906 L 0 44.753906 Z M 0 0 " clip-rule="nonzero"/></clipPath></defs><path fill="#c80000" d="M 37.84375 15.289062 C 37.84375 15.253906 37.84375 15.21875 37.832031 15.183594 C 37.816406 14.882812 37.773438 14.582031 37.703125 14.289062 C 37.628906 13.996094 37.53125 13.710938 37.40625 13.433594 C 37.28125 13.160156 37.128906 12.898438 36.953125 12.652344 C 36.777344 12.402344 36.582031 12.175781 36.359375 11.96875 C 36.140625 11.757812 35.90625 11.570312 35.652344 11.40625 C 35.394531 11.242188 35.128906 11.105469 34.847656 10.992188 C 34.566406 10.878906 34.277344 10.792969 33.980469 10.734375 C 33.683594 10.675781 33.382812 10.648438 33.078125 10.648438 L 11.875 10.648438 C 11.570312 10.648438 11.269531 10.675781 10.972656 10.734375 C 10.675781 10.792969 10.386719 10.878906 10.105469 10.992188 C 9.824219 11.105469 9.558594 11.242188 9.304688 11.40625 C 9.046875 11.570312 8.8125 11.757812 8.59375 11.96875 C 8.375 12.175781 8.175781 12.402344 8 12.652344 C 7.824219 12.898438 7.671875 13.160156 7.546875 13.433594 C 7.421875 13.710938 7.324219 13.996094 7.25 14.289062 C 7.179688 14.582031 7.136719 14.882812 7.121094 15.183594 C 7.121094 15.21875 7.113281 15.253906 7.109375 15.289062 C 7.105469 15.328125 7.097656 15.378906 7.097656 15.421875 L 7.097656 29.53125 C 7.097656 29.84375 7.128906 30.15625 7.191406 30.460938 C 7.253906 30.769531 7.34375 31.066406 7.464844 31.359375 C 7.582031 31.648438 7.730469 31.921875 7.90625 32.183594 C 8.078125 32.445312 8.277344 32.683594 8.5 32.90625 C 8.71875 33.128906 8.960938 33.324219 9.222656 33.5 C 9.480469 33.675781 9.757812 33.820312 10.046875 33.941406 C 10.335938 34.0625 10.636719 34.152344 10.941406 34.214844 C 11.25 34.273438 11.558594 34.304688 11.875 34.308594 L 33.078125 34.308594 C 33.394531 34.304688 33.703125 34.273438 34.011719 34.214844 C 34.320312 34.152344 34.617188 34.0625 34.90625 33.941406 C 35.195312 33.820312 35.472656 33.675781 35.730469 33.5 C 35.992188 33.324219 36.234375 33.128906 36.453125 32.90625 C 36.675781 32.683594 36.875 32.441406 37.046875 32.183594 C 37.222656 31.921875 37.371094 31.648438 37.488281 31.359375 C 37.609375 31.066406 37.703125 30.769531 37.761719 30.460938 C 37.824219 30.15625 37.855469 29.84375 37.855469 29.53125 L 37.855469 15.421875 C 37.855469 15.378906 37.84375 15.335938 37.84375 15.289062 Z M 11.875 13.011719 L 33.078125 13.011719 C 33.339844 13.015625 33.59375 13.054688 33.84375 13.140625 C 34.089844 13.222656 34.316406 13.34375 34.523438 13.5 C 34.734375 13.660156 34.910156 13.84375 35.058594 14.0625 C 35.203125 14.277344 35.3125 14.507812 35.386719 14.761719 L 22.476562 22.289062 L 9.566406 14.761719 C 9.640625 14.507812 9.75 14.277344 9.894531 14.0625 C 10.042969 13.84375 10.222656 13.660156 10.429688 13.5 C 10.636719 13.34375 10.863281 13.222656 11.113281 13.140625 C 11.359375 13.054688 11.613281 13.015625 11.875 13.011719 Z M 33.078125 31.941406 L 11.875 31.941406 C 11.554688 31.941406 11.246094 31.878906 10.953125 31.757812 C 10.65625 31.632812 10.398438 31.460938 10.171875 31.234375 C 9.945312 31.007812 9.769531 30.746094 9.648438 30.453125 C 9.527344 30.15625 9.464844 29.851562 9.464844 29.53125 L 9.464844 17.4375 L 21.886719 24.683594 C 22.28125 24.914062 22.679688 24.914062 23.078125 24.683594 L 35.488281 17.4375 L 35.488281 29.53125 C 35.488281 29.851562 35.425781 30.15625 35.304688 30.453125 C 35.183594 30.746094 35.007812 31.007812 34.78125 31.234375 C 34.558594 31.460938 34.296875 31.632812 34 31.757812 C 33.707031 31.878906 33.398438 31.941406 33.078125 31.941406 Z M 33.078125 31.941406 " fill-opacity="1" fill-rule="nonzero"/><g clip-path="url(#aa278fe9d3)"><path fill="#c80000" d="M 22.476562 0 C 21.742188 0 21.007812 0.0351562 20.273438 0.109375 C 19.542969 0.179688 18.8125 0.289062 18.089844 0.433594 C 17.371094 0.574219 16.65625 0.753906 15.953125 0.96875 C 15.246094 1.179688 14.554688 1.429688 13.875 1.710938 C 13.195312 1.992188 12.53125 2.308594 11.882812 2.652344 C 11.230469 3 10.601562 3.378906 9.988281 3.789062 C 9.378906 4.195312 8.785156 4.636719 8.21875 5.101562 C 7.648438 5.570312 7.105469 6.0625 6.582031 6.582031 C 6.0625 7.105469 5.570312 7.648438 5.101562 8.21875 C 4.636719 8.785156 4.195312 9.378906 3.789062 9.988281 C 3.378906 10.601562 3 11.230469 2.652344 11.882812 C 2.308594 12.53125 1.992188 13.195312 1.710938 13.875 C 1.429688 14.554688 1.179688 15.246094 0.96875 15.953125 C 0.753906 16.65625 0.574219 17.371094 0.433594 18.089844 C 0.289062 18.8125 0.179688 19.542969 0.109375 20.273438 C 0.0351562 21.007812 0 21.742188 0 22.476562 C 0 23.214844 0.0351562 23.949219 0.109375 24.679688 C 0.179688 25.414062 0.289062 26.140625 0.433594 26.863281 C 0.574219 27.582031 0.753906 28.296875 0.96875 29 C 1.179688 29.707031 1.429688 30.398438 1.710938 31.078125 C 1.992188 31.757812 2.308594 32.421875 2.652344 33.070312 C 3 33.722656 3.378906 34.351562 3.789062 34.964844 C 4.195312 35.578125 4.636719 36.167969 5.101562 36.734375 C 5.570312 37.304688 6.0625 37.851562 6.582031 38.371094 C 7.105469 38.890625 7.648438 39.382812 8.21875 39.851562 C 8.785156 40.320312 9.378906 40.757812 9.988281 41.164062 C 10.601562 41.574219 11.230469 41.953125 11.882812 42.300781 C 12.53125 42.648438 13.195312 42.960938 13.875 43.242188 C 14.554688 43.523438 15.246094 43.773438 15.953125 43.984375 C 16.65625 44.199219 17.371094 44.378906 18.089844 44.523438 C 18.8125 44.664062 19.542969 44.773438 20.273438 44.84375 C 21.007812 44.917969 21.742188 44.953125 22.476562 44.953125 C 23.214844 44.953125 23.949219 44.917969 24.679688 44.84375 C 25.414062 44.773438 26.140625 44.664062 26.863281 44.523438 C 27.582031 44.378906 28.296875 44.199219 29 43.984375 C 29.707031 43.773438 30.398438 43.523438 31.078125 43.242188 C 31.757812 42.960938 32.421875 42.648438 33.074219 42.300781 C 33.722656 41.953125 34.351562 41.574219 34.964844 41.164062 C 35.578125 40.757812 36.167969 40.320312 36.734375 39.851562 C 37.304688 39.382812 37.851562 38.890625 38.371094 38.371094 C 38.890625 37.851562 39.382812 37.304688 39.851562 36.734375 C 40.320312 36.167969 40.757812 35.578125 41.164062 34.964844 C 41.574219 34.351562 41.953125 33.722656 42.300781 33.070312 C 42.648438 32.421875 42.960938 31.757812 43.242188 31.078125 C 43.523438 30.398438 43.773438 29.707031 43.984375 29 C 44.199219 28.296875 44.378906 27.582031 44.523438 26.863281 C 44.664062 26.140625 44.773438 25.414062 44.84375 24.679688 C 44.917969 23.949219 44.953125 23.214844 44.953125 22.476562 C 44.953125 21.742188 44.914062 21.007812 44.84375 20.273438 C 44.769531 19.542969 44.660156 18.816406 44.519531 18.09375 C 44.375 17.371094 44.195312 16.660156 43.980469 15.953125 C 43.765625 15.25 43.519531 14.558594 43.234375 13.878906 C 42.953125 13.199219 42.640625 12.535156 42.292969 11.886719 C 41.945312 11.238281 41.566406 10.605469 41.15625 9.996094 C 40.75 9.382812 40.3125 8.792969 39.84375 8.222656 C 39.378906 7.65625 38.882812 7.109375 38.363281 6.589844 C 37.84375 6.070312 37.296875 5.578125 36.730469 5.109375 C 36.160156 4.644531 35.570312 4.203125 34.957031 3.796875 C 34.347656 3.386719 33.714844 3.007812 33.066406 2.660156 C 32.417969 2.3125 31.753906 2 31.074219 1.71875 C 30.394531 1.4375 29.703125 1.1875 29 0.972656 C 28.292969 0.757812 27.582031 0.582031 26.859375 0.4375 C 26.136719 0.292969 25.410156 0.183594 24.679688 0.109375 C 23.945312 0.0390625 23.210938 0 22.476562 0 Z M 22.476562 42.585938 C 21.816406 42.585938 21.160156 42.554688 20.503906 42.492188 C 19.851562 42.425781 19.199219 42.328125 18.554688 42.199219 C 17.90625 42.074219 17.269531 41.914062 16.640625 41.722656 C 16.007812 41.53125 15.390625 41.308594 14.78125 41.058594 C 14.171875 40.804688 13.578125 40.523438 12.996094 40.214844 C 12.414062 39.902344 11.851562 39.5625 11.304688 39.199219 C 10.757812 38.832031 10.226562 38.441406 9.71875 38.023438 C 9.210938 37.605469 8.722656 37.164062 8.257812 36.699219 C 7.789062 36.230469 7.347656 35.742188 6.929688 35.234375 C 6.511719 34.726562 6.121094 34.199219 5.753906 33.648438 C 5.390625 33.101562 5.050781 32.539062 4.742188 31.957031 C 4.429688 31.375 4.148438 30.78125 3.898438 30.171875 C 3.644531 29.5625 3.421875 28.945312 3.230469 28.316406 C 3.039062 27.683594 2.882812 27.046875 2.753906 26.398438 C 2.625 25.753906 2.527344 25.101562 2.460938 24.449219 C 2.398438 23.792969 2.367188 23.136719 2.367188 22.476562 C 2.367188 21.816406 2.398438 21.160156 2.460938 20.503906 C 2.527344 19.851562 2.625 19.199219 2.753906 18.554688 C 2.882812 17.90625 3.039062 17.269531 3.230469 16.640625 C 3.421875 16.007812 3.644531 15.390625 3.898438 14.78125 C 4.148438 14.171875 4.429688 13.578125 4.742188 12.996094 C 5.050781 12.414062 5.390625 11.851562 5.753906 11.304688 C 6.121094 10.757812 6.511719 10.226562 6.929688 9.71875 C 7.347656 9.210938 7.789062 8.722656 8.257812 8.257812 C 8.722656 7.789062 9.210938 7.347656 9.71875 6.929688 C 10.226562 6.511719 10.757812 6.121094 11.304688 5.753906 C 11.851562 5.390625 12.414062 5.050781 12.996094 4.742188 C 13.578125 4.429688 14.171875 4.148438 14.78125 3.898438 C 15.390625 3.644531 16.007812 3.421875 16.640625 3.230469 C 17.269531 3.039062 17.90625 2.882812 18.554688 2.753906 C 19.199219 2.625 19.851562 2.527344 20.503906 2.460938 C 21.160156 2.398438 21.816406 2.367188 22.476562 2.367188 C 23.136719 2.367188 23.792969 2.398438 24.449219 2.460938 C 25.101562 2.527344 25.753906 2.625 26.398438 2.753906 C 27.046875 2.882812 27.683594 3.039062 28.316406 3.230469 C 28.945312 3.421875 29.5625 3.644531 30.171875 3.898438 C 30.78125 4.148438 31.375 4.429688 31.957031 4.742188 C 32.539062 5.050781 33.101562 5.390625 33.648438 5.753906 C 34.199219 6.121094 34.726562 6.511719 35.234375 6.929688 C 35.742188 7.347656 36.230469 7.789062 36.699219 8.257812 C 37.164062 8.722656 37.605469 9.210938 38.023438 9.71875 C 38.441406 10.226562 38.832031 10.757812 39.199219 11.304688 C 39.5625 11.851562 39.902344 12.414062 40.214844 12.996094 C 40.523438 13.578125 40.804688 14.171875 41.058594 14.78125 C 41.308594 15.390625 41.53125 16.007812 41.722656 16.640625 C 41.914062 17.269531 42.074219 17.90625 42.199219 18.554688 C 42.328125 19.199219 42.425781 19.851562 42.492188 20.503906 C 42.554688 21.160156 42.585938 21.816406 42.585938 22.476562 C 42.585938 23.136719 42.554688 23.792969 42.488281 24.449219 C 42.421875 25.101562 42.328125 25.753906 42.199219 26.398438 C 42.070312 27.042969 41.90625 27.683594 41.714844 28.3125 C 41.523438 28.941406 41.304688 29.5625 41.050781 30.167969 C 40.796875 30.777344 40.515625 31.371094 40.207031 31.953125 C 39.894531 32.53125 39.558594 33.097656 39.191406 33.644531 C 38.824219 34.191406 38.433594 34.71875 38.015625 35.230469 C 37.597656 35.738281 37.15625 36.226562 36.691406 36.691406 C 36.226562 37.15625 35.738281 37.597656 35.230469 38.015625 C 34.71875 38.433594 34.191406 38.824219 33.644531 39.191406 C 33.097656 39.558594 32.53125 39.894531 31.953125 40.207031 C 31.371094 40.515625 30.777344 40.796875 30.167969 41.050781 C 29.5625 41.304688 28.941406 41.523438 28.3125 41.714844 C 27.683594 41.90625 27.042969 42.070312 26.398438 42.199219 C 25.753906 42.328125 25.101562 42.421875 24.449219 42.488281 C 23.792969 42.554688 23.136719 42.585938 22.476562 42.585938 Z M 22.476562 42.585938 " fill-opacity="1" fill-rule="nonzero"/></g><path stroke-linecap="butt" transform="matrix(-0.745924, -0.00000000130188, 0.00000000130188, -0.745924, 37.231213, 27.449998)" fill="none" stroke-linejoin="miter" d="M 0.000998017 2.001501 L 1.650588 2.001501 " stroke="#d72e2a" stroke-width="4" stroke-opacity="1" stroke-miterlimit="4"/></svg>