<svg xmlns="http://www.w3.org/2000/svg" xmlns:xlink="http://www.w3.org/1999/xlink" width="61" zoomAndPan="magnify" viewBox="0 0 45.75 45.749999" height="61" preserveAspectRatio="xMidYMid meet" version="1.0"><path stroke-linecap="butt" transform="matrix(-0.745924, -0.00000000130188, 0.00000000130188, -0.745924, 29.511196, 28.932078)" fill="none" stroke-linejoin="miter" d="M -0.000700523 1.998423 L 1.64889 1.998423 " stroke="#d72e2a" stroke-width="4" stroke-opacity="1" stroke-miterlimit="4"/><path fill="#80af52" d="M 36.507812 8.25 C 28.429688 0.171875 15.496094 0.00390625 7.621094 7.878906 C 0.707031 14.792969 -0.00390625 25.609375 5.398438 33.613281 L 1.714844 43.578125 L 11.34375 39.492188 C 19.328125 44.753906 30.027344 43.996094 36.882812 37.136719 C 44.757812 29.265625 44.589844 16.332031 36.507812 8.25 Z M 36.507812 8.25 " fill-opacity="1" fill-rule="nonzero"/><path fill="#d7deed" d="M 32.003906 27.203125 C 33.894531 28.34375 34.265625 28.257812 34.265625 29.410156 C 34.265625 30.464844 31.796875 33.882812 29.007812 33.882812 C 24.917969 33.882812 20.453125 31.367188 16.949219 27.957031 C 13.539062 24.449219 11.023438 19.984375 11.019531 15.898438 C 11.019531 13.105469 14.4375 10.640625 15.492188 10.640625 C 16.648438 10.640625 16.5625 11.007812 17.703125 12.902344 C 18.335938 13.953125 19.84375 15.933594 19.558594 16.671875 C 19.148438 17.722656 16.675781 18.957031 16.675781 19.710938 C 16.675781 22.222656 22.679688 28.226562 25.191406 28.230469 C 25.945312 28.226562 27.179688 25.753906 28.234375 25.347656 C 28.972656 25.0625 30.949219 26.566406 32.003906 27.203125 Z M 32.003906 27.203125 " fill-opacity="1" fill-rule="nonzero"/></svg>